<svg width="74" height="52" viewBox="0 0 74 52" fill="none" xmlns="http://www.w3.org/2000/svg">
<rect width="74" height="52" rx="15" fill="#E16363"/>
<path fill-rule="evenodd" clip-rule="evenodd" d="M30.5 13.5C30.5 12.1193 31.6193 11 33 11H40.5C41.8807 11 43 12.1193 43 13.5V16H50.5V18.5H48V36.625C48 39.0412 46.0412 41 43.625 41H30.5C27.7386 41 25.5 38.7614 25.5 36V18.5H23V16H30.5V13.5ZM33 16H40.5V14.75C40.5 14.0596 39.9404 13.5 39.25 13.5H34.25C33.5596 13.5 33 14.0596 33 14.75V16ZM30.5 21H33V36H30.5V21ZM35.5 21H38V36H35.5V21ZM40.5 21H43V36H40.5V21Z" fill="#F2F2F2"/>
</svg>
